<mxfile host="Electron" modified="2023-12-12T20:43:14.429Z" agent="Mozilla/5.0 (Windows NT 10.0; Win64; x64) AppleWebKit/537.36 (KHTML, like Gecko) draw.io/22.1.2 Chrome/114.0.5735.289 Electron/25.9.4 Safari/537.36" etag="MNcrPBL-RPlrld6rYyqy" version="22.1.2" type="device">
  <diagram name="Page-1" id="1Gj-cbJdRD2_oNA0T6PP">
    <mxGraphModel dx="1098" dy="912" grid="1" gridSize="10" guides="1" tooltips="1" connect="1" arrows="1" fold="1" page="1" pageScale="1" pageWidth="850" pageHeight="1100" math="0" shadow="0">
      <root>
        <mxCell id="0" />
        <mxCell id="1" parent="0" />
        <mxCell id="ewtq7LpS9UkBpbuXzDGn-1" value="galois_multiply" style="rounded=0;whiteSpace=wrap;html=1;" vertex="1" parent="1">
          <mxGeometry x="40" y="240" width="120" height="120" as="geometry" />
        </mxCell>
        <mxCell id="ewtq7LpS9UkBpbuXzDGn-2" value="galois_multiply" style="rounded=0;whiteSpace=wrap;html=1;" vertex="1" parent="1">
          <mxGeometry x="200" y="240" width="120" height="120" as="geometry" />
        </mxCell>
        <mxCell id="ewtq7LpS9UkBpbuXzDGn-3" value="galois_multiply" style="rounded=0;whiteSpace=wrap;html=1;" vertex="1" parent="1">
          <mxGeometry x="520" y="240" width="120" height="120" as="geometry" />
        </mxCell>
        <mxCell id="ewtq7LpS9UkBpbuXzDGn-4" value="galois_multiply" style="rounded=0;whiteSpace=wrap;html=1;" vertex="1" parent="1">
          <mxGeometry x="680" y="240" width="120" height="120" as="geometry" />
        </mxCell>
        <mxCell id="ewtq7LpS9UkBpbuXzDGn-5" value="in_0" style="text;html=1;strokeColor=none;fillColor=none;align=center;verticalAlign=middle;whiteSpace=wrap;rounded=0;" vertex="1" parent="1">
          <mxGeometry x="40" y="240" width="60" height="30" as="geometry" />
        </mxCell>
        <mxCell id="ewtq7LpS9UkBpbuXzDGn-6" value="in_1" style="text;html=1;strokeColor=none;fillColor=none;align=center;verticalAlign=middle;whiteSpace=wrap;rounded=0;" vertex="1" parent="1">
          <mxGeometry x="100" y="240" width="60" height="30" as="geometry" />
        </mxCell>
        <mxCell id="ewtq7LpS9UkBpbuXzDGn-7" value="out_0" style="text;html=1;strokeColor=none;fillColor=none;align=center;verticalAlign=middle;whiteSpace=wrap;rounded=0;" vertex="1" parent="1">
          <mxGeometry x="70" y="330" width="60" height="30" as="geometry" />
        </mxCell>
        <mxCell id="ewtq7LpS9UkBpbuXzDGn-11" value="in_0" style="text;html=1;strokeColor=none;fillColor=none;align=center;verticalAlign=middle;whiteSpace=wrap;rounded=0;" vertex="1" parent="1">
          <mxGeometry x="200" y="240" width="60" height="30" as="geometry" />
        </mxCell>
        <mxCell id="ewtq7LpS9UkBpbuXzDGn-12" value="in_1" style="text;html=1;strokeColor=none;fillColor=none;align=center;verticalAlign=middle;whiteSpace=wrap;rounded=0;" vertex="1" parent="1">
          <mxGeometry x="260" y="240" width="60" height="30" as="geometry" />
        </mxCell>
        <mxCell id="ewtq7LpS9UkBpbuXzDGn-13" value="out_0" style="text;html=1;strokeColor=none;fillColor=none;align=center;verticalAlign=middle;whiteSpace=wrap;rounded=0;" vertex="1" parent="1">
          <mxGeometry x="230" y="330" width="60" height="30" as="geometry" />
        </mxCell>
        <mxCell id="ewtq7LpS9UkBpbuXzDGn-14" value="in_0" style="text;html=1;strokeColor=none;fillColor=none;align=center;verticalAlign=middle;whiteSpace=wrap;rounded=0;" vertex="1" parent="1">
          <mxGeometry x="520" y="240" width="60" height="30" as="geometry" />
        </mxCell>
        <mxCell id="ewtq7LpS9UkBpbuXzDGn-15" value="in_1" style="text;html=1;strokeColor=none;fillColor=none;align=center;verticalAlign=middle;whiteSpace=wrap;rounded=0;" vertex="1" parent="1">
          <mxGeometry x="580" y="240" width="60" height="30" as="geometry" />
        </mxCell>
        <mxCell id="ewtq7LpS9UkBpbuXzDGn-28" style="edgeStyle=orthogonalEdgeStyle;rounded=0;orthogonalLoop=1;jettySize=auto;html=1;entryX=0.75;entryY=0;entryDx=0;entryDy=0;" edge="1" parent="1" source="ewtq7LpS9UkBpbuXzDGn-16" target="ewtq7LpS9UkBpbuXzDGn-23">
          <mxGeometry relative="1" as="geometry">
            <Array as="points">
              <mxPoint x="580" y="460" />
              <mxPoint x="381" y="460" />
            </Array>
          </mxGeometry>
        </mxCell>
        <mxCell id="ewtq7LpS9UkBpbuXzDGn-16" value="out_0" style="text;html=1;strokeColor=none;fillColor=none;align=center;verticalAlign=middle;whiteSpace=wrap;rounded=0;" vertex="1" parent="1">
          <mxGeometry x="550" y="330" width="60" height="30" as="geometry" />
        </mxCell>
        <mxCell id="ewtq7LpS9UkBpbuXzDGn-17" value="in_0" style="text;html=1;strokeColor=none;fillColor=none;align=center;verticalAlign=middle;whiteSpace=wrap;rounded=0;" vertex="1" parent="1">
          <mxGeometry x="680" y="240" width="60" height="30" as="geometry" />
        </mxCell>
        <mxCell id="ewtq7LpS9UkBpbuXzDGn-18" value="in_1" style="text;html=1;strokeColor=none;fillColor=none;align=center;verticalAlign=middle;whiteSpace=wrap;rounded=0;" vertex="1" parent="1">
          <mxGeometry x="740" y="240" width="60" height="30" as="geometry" />
        </mxCell>
        <mxCell id="ewtq7LpS9UkBpbuXzDGn-19" value="out_0" style="text;html=1;strokeColor=none;fillColor=none;align=center;verticalAlign=middle;whiteSpace=wrap;rounded=0;" vertex="1" parent="1">
          <mxGeometry x="710" y="330" width="60" height="30" as="geometry" />
        </mxCell>
        <mxCell id="ewtq7LpS9UkBpbuXzDGn-31" style="edgeStyle=orthogonalEdgeStyle;rounded=0;orthogonalLoop=1;jettySize=auto;html=1;entryX=0.5;entryY=0;entryDx=0;entryDy=0;" edge="1" parent="1" source="ewtq7LpS9UkBpbuXzDGn-20" target="ewtq7LpS9UkBpbuXzDGn-5">
          <mxGeometry relative="1" as="geometry">
            <Array as="points">
              <mxPoint x="260" y="80" />
              <mxPoint x="70" y="80" />
            </Array>
          </mxGeometry>
        </mxCell>
        <mxCell id="ewtq7LpS9UkBpbuXzDGn-37" value="/4" style="edgeLabel;html=1;align=center;verticalAlign=middle;resizable=0;points=[];" vertex="1" connectable="0" parent="ewtq7LpS9UkBpbuXzDGn-31">
          <mxGeometry x="0.5278" y="-2" relative="1" as="geometry">
            <mxPoint as="offset" />
          </mxGeometry>
        </mxCell>
        <mxCell id="ewtq7LpS9UkBpbuXzDGn-32" value="/4" style="edgeStyle=orthogonalEdgeStyle;rounded=0;orthogonalLoop=1;jettySize=auto;html=1;entryX=0.5;entryY=0;entryDx=0;entryDy=0;" edge="1" parent="1" source="ewtq7LpS9UkBpbuXzDGn-20" target="ewtq7LpS9UkBpbuXzDGn-11">
          <mxGeometry relative="1" as="geometry" />
        </mxCell>
        <mxCell id="ewtq7LpS9UkBpbuXzDGn-33" style="edgeStyle=orthogonalEdgeStyle;rounded=0;orthogonalLoop=1;jettySize=auto;html=1;entryX=0.5;entryY=0;entryDx=0;entryDy=0;" edge="1" parent="1" source="ewtq7LpS9UkBpbuXzDGn-20" target="ewtq7LpS9UkBpbuXzDGn-14">
          <mxGeometry relative="1" as="geometry">
            <Array as="points">
              <mxPoint x="260" y="80" />
              <mxPoint x="550" y="80" />
            </Array>
          </mxGeometry>
        </mxCell>
        <mxCell id="ewtq7LpS9UkBpbuXzDGn-39" value="/4" style="edgeLabel;html=1;align=center;verticalAlign=middle;resizable=0;points=[];" vertex="1" connectable="0" parent="ewtq7LpS9UkBpbuXzDGn-33">
          <mxGeometry x="0.6667" y="-2" relative="1" as="geometry">
            <mxPoint as="offset" />
          </mxGeometry>
        </mxCell>
        <mxCell id="ewtq7LpS9UkBpbuXzDGn-48" style="edgeStyle=orthogonalEdgeStyle;rounded=0;orthogonalLoop=1;jettySize=auto;html=1;entryX=0.5;entryY=0;entryDx=0;entryDy=0;" edge="1" parent="1" source="ewtq7LpS9UkBpbuXzDGn-20" target="ewtq7LpS9UkBpbuXzDGn-17">
          <mxGeometry relative="1" as="geometry">
            <Array as="points">
              <mxPoint x="260" y="80" />
              <mxPoint x="710" y="80" />
            </Array>
          </mxGeometry>
        </mxCell>
        <mxCell id="ewtq7LpS9UkBpbuXzDGn-53" value="/264" style="edgeLabel;html=1;align=center;verticalAlign=middle;resizable=0;points=[];" vertex="1" connectable="0" parent="ewtq7LpS9UkBpbuXzDGn-48">
          <mxGeometry x="-0.9594" y="1" relative="1" as="geometry">
            <mxPoint as="offset" />
          </mxGeometry>
        </mxCell>
        <mxCell id="ewtq7LpS9UkBpbuXzDGn-20" value="&lt;font color=&quot;#66cc00&quot;&gt;&lt;span style=&quot;font-size: 14px;&quot;&gt;&lt;b&gt;left_row&lt;/b&gt;&lt;/span&gt;&lt;/font&gt;" style="text;html=1;align=center;verticalAlign=middle;resizable=0;points=[];autosize=1;strokeColor=none;fillColor=none;" vertex="1" parent="1">
          <mxGeometry x="220" y="20" width="80" height="30" as="geometry" />
        </mxCell>
        <mxCell id="ewtq7LpS9UkBpbuXzDGn-43" style="edgeStyle=orthogonalEdgeStyle;rounded=0;orthogonalLoop=1;jettySize=auto;html=1;entryX=0.5;entryY=0;entryDx=0;entryDy=0;" edge="1" parent="1" source="ewtq7LpS9UkBpbuXzDGn-21" target="ewtq7LpS9UkBpbuXzDGn-6">
          <mxGeometry relative="1" as="geometry">
            <Array as="points">
              <mxPoint x="410" y="110" />
              <mxPoint x="130" y="110" />
            </Array>
          </mxGeometry>
        </mxCell>
        <mxCell id="ewtq7LpS9UkBpbuXzDGn-50" value="/4" style="edgeLabel;html=1;align=center;verticalAlign=middle;resizable=0;points=[];" vertex="1" connectable="0" parent="ewtq7LpS9UkBpbuXzDGn-43">
          <mxGeometry x="0.7644" y="1" relative="1" as="geometry">
            <mxPoint as="offset" />
          </mxGeometry>
        </mxCell>
        <mxCell id="ewtq7LpS9UkBpbuXzDGn-45" style="edgeStyle=orthogonalEdgeStyle;rounded=0;orthogonalLoop=1;jettySize=auto;html=1;entryX=0.5;entryY=0;entryDx=0;entryDy=0;" edge="1" parent="1" source="ewtq7LpS9UkBpbuXzDGn-21" target="ewtq7LpS9UkBpbuXzDGn-15">
          <mxGeometry relative="1" as="geometry">
            <Array as="points">
              <mxPoint x="410" y="110" />
              <mxPoint x="610" y="110" />
            </Array>
          </mxGeometry>
        </mxCell>
        <mxCell id="ewtq7LpS9UkBpbuXzDGn-57" value="/4" style="edgeLabel;html=1;align=center;verticalAlign=middle;resizable=0;points=[];" vertex="1" connectable="0" parent="ewtq7LpS9UkBpbuXzDGn-45">
          <mxGeometry x="0.6486" y="1" relative="1" as="geometry">
            <mxPoint as="offset" />
          </mxGeometry>
        </mxCell>
        <mxCell id="ewtq7LpS9UkBpbuXzDGn-46" style="edgeStyle=orthogonalEdgeStyle;rounded=0;orthogonalLoop=1;jettySize=auto;html=1;entryX=0.5;entryY=0;entryDx=0;entryDy=0;" edge="1" parent="1" source="ewtq7LpS9UkBpbuXzDGn-21" target="ewtq7LpS9UkBpbuXzDGn-18">
          <mxGeometry relative="1" as="geometry">
            <Array as="points">
              <mxPoint x="410" y="110" />
              <mxPoint x="770" y="110" />
            </Array>
          </mxGeometry>
        </mxCell>
        <mxCell id="ewtq7LpS9UkBpbuXzDGn-52" value="/264" style="edgeLabel;html=1;align=center;verticalAlign=middle;resizable=0;points=[];" vertex="1" connectable="0" parent="ewtq7LpS9UkBpbuXzDGn-46">
          <mxGeometry x="-0.9132" y="1" relative="1" as="geometry">
            <mxPoint as="offset" />
          </mxGeometry>
        </mxCell>
        <mxCell id="ewtq7LpS9UkBpbuXzDGn-59" value="/4" style="edgeLabel;html=1;align=center;verticalAlign=middle;resizable=0;points=[];" vertex="1" connectable="0" parent="ewtq7LpS9UkBpbuXzDGn-46">
          <mxGeometry x="0.6868" y="3" relative="1" as="geometry">
            <mxPoint as="offset" />
          </mxGeometry>
        </mxCell>
        <mxCell id="ewtq7LpS9UkBpbuXzDGn-54" style="edgeStyle=orthogonalEdgeStyle;rounded=0;orthogonalLoop=1;jettySize=auto;html=1;entryX=0.5;entryY=0;entryDx=0;entryDy=0;" edge="1" parent="1" source="ewtq7LpS9UkBpbuXzDGn-21" target="ewtq7LpS9UkBpbuXzDGn-12">
          <mxGeometry relative="1" as="geometry">
            <Array as="points">
              <mxPoint x="410" y="110" />
              <mxPoint x="290" y="110" />
            </Array>
          </mxGeometry>
        </mxCell>
        <mxCell id="ewtq7LpS9UkBpbuXzDGn-55" value="/4" style="edgeLabel;html=1;align=center;verticalAlign=middle;resizable=0;points=[];" vertex="1" connectable="0" parent="ewtq7LpS9UkBpbuXzDGn-54">
          <mxGeometry x="0.5517" relative="1" as="geometry">
            <mxPoint as="offset" />
          </mxGeometry>
        </mxCell>
        <mxCell id="ewtq7LpS9UkBpbuXzDGn-21" value="&lt;b&gt;&lt;font color=&quot;#66cc00&quot; style=&quot;font-size: 14px;&quot;&gt;right_col&lt;/font&gt;&lt;/b&gt;" style="text;html=1;align=center;verticalAlign=middle;resizable=0;points=[];autosize=1;strokeColor=none;fillColor=none;" vertex="1" parent="1">
          <mxGeometry x="370" y="150" width="80" height="30" as="geometry" />
        </mxCell>
        <mxCell id="ewtq7LpS9UkBpbuXzDGn-22" value="&lt;b&gt;&lt;font color=&quot;#ff0000&quot; style=&quot;font-size: 14px;&quot;&gt;result&lt;/font&gt;&lt;/b&gt;" style="text;html=1;align=center;verticalAlign=middle;resizable=0;points=[];autosize=1;strokeColor=none;fillColor=none;" vertex="1" parent="1">
          <mxGeometry x="330" y="580" width="60" height="30" as="geometry" />
        </mxCell>
        <mxCell id="ewtq7LpS9UkBpbuXzDGn-24" style="edgeStyle=orthogonalEdgeStyle;rounded=0;orthogonalLoop=1;jettySize=auto;html=1;" edge="1" parent="1" source="ewtq7LpS9UkBpbuXzDGn-23" target="ewtq7LpS9UkBpbuXzDGn-22">
          <mxGeometry relative="1" as="geometry" />
        </mxCell>
        <mxCell id="ewtq7LpS9UkBpbuXzDGn-25" value="/4" style="edgeLabel;html=1;align=center;verticalAlign=middle;resizable=0;points=[];" vertex="1" connectable="0" parent="ewtq7LpS9UkBpbuXzDGn-24">
          <mxGeometry relative="1" as="geometry">
            <mxPoint as="offset" />
          </mxGeometry>
        </mxCell>
        <mxCell id="ewtq7LpS9UkBpbuXzDGn-23" value="&lt;b&gt;XOR&lt;/b&gt;" style="rounded=0;whiteSpace=wrap;html=1;" vertex="1" parent="1">
          <mxGeometry x="317.5" y="490" width="85" height="20" as="geometry" />
        </mxCell>
        <mxCell id="ewtq7LpS9UkBpbuXzDGn-26" style="edgeStyle=orthogonalEdgeStyle;rounded=0;orthogonalLoop=1;jettySize=auto;html=1;entryX=0.182;entryY=0.05;entryDx=0;entryDy=0;entryPerimeter=0;" edge="1" parent="1" source="ewtq7LpS9UkBpbuXzDGn-7" target="ewtq7LpS9UkBpbuXzDGn-23">
          <mxGeometry relative="1" as="geometry">
            <Array as="points">
              <mxPoint x="100" y="470" />
              <mxPoint x="333" y="470" />
            </Array>
          </mxGeometry>
        </mxCell>
        <mxCell id="ewtq7LpS9UkBpbuXzDGn-27" style="edgeStyle=orthogonalEdgeStyle;rounded=0;orthogonalLoop=1;jettySize=auto;html=1;entryX=0.335;entryY=0;entryDx=0;entryDy=0;entryPerimeter=0;" edge="1" parent="1" source="ewtq7LpS9UkBpbuXzDGn-13" target="ewtq7LpS9UkBpbuXzDGn-23">
          <mxGeometry relative="1" as="geometry">
            <Array as="points">
              <mxPoint x="260" y="460" />
              <mxPoint x="346" y="460" />
            </Array>
          </mxGeometry>
        </mxCell>
        <mxCell id="ewtq7LpS9UkBpbuXzDGn-29" style="edgeStyle=orthogonalEdgeStyle;rounded=0;orthogonalLoop=1;jettySize=auto;html=1;entryX=0.912;entryY=0;entryDx=0;entryDy=0;entryPerimeter=0;" edge="1" parent="1" source="ewtq7LpS9UkBpbuXzDGn-19" target="ewtq7LpS9UkBpbuXzDGn-23">
          <mxGeometry relative="1" as="geometry">
            <Array as="points">
              <mxPoint x="740" y="470" />
              <mxPoint x="395" y="470" />
            </Array>
          </mxGeometry>
        </mxCell>
        <mxCell id="ewtq7LpS9UkBpbuXzDGn-30" value="&lt;b&gt;&lt;font style=&quot;font-size: 24px;&quot;&gt;. . .&lt;/font&gt;&lt;/b&gt;" style="text;html=1;align=center;verticalAlign=middle;resizable=0;points=[];autosize=1;strokeColor=none;fillColor=none;" vertex="1" parent="1">
          <mxGeometry x="380" y="270" width="60" height="40" as="geometry" />
        </mxCell>
        <mxCell id="ewtq7LpS9UkBpbuXzDGn-35" value="left_row[0:3]" style="text;html=1;strokeColor=none;fillColor=none;align=center;verticalAlign=middle;whiteSpace=wrap;rounded=0;" vertex="1" parent="1">
          <mxGeometry y="190" width="70" height="30" as="geometry" />
        </mxCell>
        <mxCell id="ewtq7LpS9UkBpbuXzDGn-36" value="left_row[4:7]" style="text;html=1;strokeColor=none;fillColor=none;align=center;verticalAlign=middle;whiteSpace=wrap;rounded=0;" vertex="1" parent="1">
          <mxGeometry x="160" y="190" width="70" height="30" as="geometry" />
        </mxCell>
        <mxCell id="ewtq7LpS9UkBpbuXzDGn-41" value="left_row[260:263]" style="text;html=1;strokeColor=none;fillColor=none;align=center;verticalAlign=middle;whiteSpace=wrap;rounded=0;" vertex="1" parent="1">
          <mxGeometry x="630" y="190" width="70" height="30" as="geometry" />
        </mxCell>
        <mxCell id="ewtq7LpS9UkBpbuXzDGn-42" value="left_row[256:259]" style="text;html=1;strokeColor=none;fillColor=none;align=center;verticalAlign=middle;whiteSpace=wrap;rounded=0;" vertex="1" parent="1">
          <mxGeometry x="470" y="190" width="70" height="30" as="geometry" />
        </mxCell>
        <mxCell id="ewtq7LpS9UkBpbuXzDGn-49" value="right_col[0:3]" style="text;html=1;strokeColor=none;fillColor=none;align=center;verticalAlign=middle;whiteSpace=wrap;rounded=0;" vertex="1" parent="1">
          <mxGeometry x="130" y="130" width="70" height="30" as="geometry" />
        </mxCell>
        <mxCell id="ewtq7LpS9UkBpbuXzDGn-51" value="right_col[4:7]" style="text;html=1;strokeColor=none;fillColor=none;align=center;verticalAlign=middle;whiteSpace=wrap;rounded=0;" vertex="1" parent="1">
          <mxGeometry x="300" y="180" width="70" height="30" as="geometry" />
        </mxCell>
        <mxCell id="ewtq7LpS9UkBpbuXzDGn-56" value="right_col[256:259]" style="text;html=1;strokeColor=none;fillColor=none;align=center;verticalAlign=middle;whiteSpace=wrap;rounded=0;" vertex="1" parent="1">
          <mxGeometry x="630" y="140" width="70" height="30" as="geometry" />
        </mxCell>
        <mxCell id="ewtq7LpS9UkBpbuXzDGn-58" value="right_col[260:263]" style="text;html=1;strokeColor=none;fillColor=none;align=center;verticalAlign=middle;whiteSpace=wrap;rounded=0;" vertex="1" parent="1">
          <mxGeometry x="750" y="80" width="70" height="30" as="geometry" />
        </mxCell>
      </root>
    </mxGraphModel>
  </diagram>
</mxfile>
